<?xml version="1.0" encoding="utf-8"?><!-- Generator: Adobe Illustrator 15.0.0, SVG Export Plug-In . SVG Version: 6.00 Build 0)  --><!DOCTYPE svg PUBLIC "-//W3C//DTD SVG 1.1//EN" "http://www.w3.org/Graphics/SVG/1.1/DTD/svg11.dtd"><svg xmlns="http://www.w3.org/2000/svg" xmlns:xlink="http://www.w3.org/1999/xlink" viewBox="0 0 48 48" width="40px" height="40px"><path fill="#0288D1" d="M42,37c0,2.762-2.238,5-5,5H11c-2.761,0-5-2.238-5-5V11c0-2.762,2.239-5,5-5h26c2.762,0,5,2.238,5,5V37z"/><g><rect x="12" y="19" fill="#FFFFFF" width="5" height="17"/><path fill="#FFFFFF" d="M14.485,17h-0.028C12.965,17,12,15.888,12,14.499C12,13.08,12.995,12,14.514,12c1.521,0,2.458,1.08,2.486,2.499C17,15.887,16.035,17,14.485,17z"/><path fill="#FFFFFF" d="M36,36h-5v-9.099c0-2.198-1.225-3.698-3.192-3.698c-1.501,0-2.313,1.012-2.707,1.99C24.957,25.543,25,26.511,25,27v9h-5V19h5v2.616C25.721,20.5,26.85,19,29.738,19c3.578,0,6.261,2.25,6.261,7.274L36,36L36,36z"/></g></svg>